<svg width="102" height="120" viewBox="0 0 102 120" fill="none" xmlns="http://www.w3.org/2000/svg">
<rect x="0.52124" width="101" height="74" rx="20" transform="rotate(0.40357 0.52124 0)" fill="#FF6431"/>
<path d="M38.3932 45.8107H42.1372V23.8747H38.3932V21.3307H61.4812V29.5387H58.4572V23.8747H46.0732V32.9467H54.2332V30.0187H56.2492V38.8027H54.2332V35.6827H46.0732V45.8107H49.8172V48.3547H38.3932V45.8107Z" fill="#F6F0C7"/>
<path d="M12.5656 104.235H15.6856V85.9547H12.5656V83.8347H23.7256C26.2323 83.8347 28.1389 84.3147 29.4456 85.2747C30.7789 86.2081 31.4456 87.5947 31.4456 89.4347C31.4456 90.6614 31.139 91.7014 30.5256 92.5547C29.9123 93.4081 29.0856 94.0081 28.0456 94.3547C29.5389 94.7281 30.6723 95.4214 31.4456 96.4347C32.2456 97.4214 32.6456 98.6081 32.6456 99.9947C32.6456 101.808 31.9923 103.328 30.6856 104.555C29.3789 105.755 27.3389 106.355 24.5656 106.355H12.5656V104.235ZM23.5256 93.4347C26.6456 93.4347 28.2056 92.1414 28.2056 89.5547C28.2056 88.2481 27.7789 87.3281 26.9256 86.7947C26.0989 86.2347 24.7256 85.9547 22.8056 85.9547H18.9656V93.4347H23.5256ZM24.0056 104.235C27.5523 104.235 29.3256 102.781 29.3256 99.8747C29.3256 98.5681 28.8723 97.5414 27.9656 96.7947C27.0589 96.0214 25.6989 95.6347 23.8856 95.6347H18.9656V104.235H24.0056ZM48.3687 106.795C45.9687 106.795 43.8354 106.275 41.9687 105.235C40.1287 104.168 38.7021 102.755 37.6887 100.995C36.6754 99.2081 36.1687 97.2614 36.1687 95.1547C36.1687 93.0481 36.6754 91.1014 37.6887 89.3147C38.7021 87.5014 40.1287 86.0747 41.9687 85.0347C43.8354 83.9681 45.9687 83.4347 48.3687 83.4347C50.7687 83.4347 52.8887 83.9681 54.7287 85.0347C56.5954 86.0747 58.0354 87.5014 59.0487 89.3147C60.0621 91.1014 60.5687 93.0481 60.5687 95.1547C60.5687 97.2614 60.0621 99.2081 59.0487 100.995C58.0354 102.755 56.5954 104.168 54.7287 105.235C52.8887 106.275 50.7687 106.795 48.3687 106.795ZM48.3687 104.395C50.1554 104.395 51.7021 103.981 53.0087 103.155C54.3154 102.328 55.3154 101.221 56.0087 99.8347C56.7287 98.4214 57.0887 96.8614 57.0887 95.1547C57.0887 93.4214 56.7287 91.8481 56.0087 90.4347C55.3154 89.0214 54.3154 87.9014 53.0087 87.0747C51.7021 86.2214 50.1554 85.7947 48.3687 85.7947C46.5821 85.7947 45.0354 86.2214 43.7287 87.0747C42.4221 87.9014 41.4221 89.0347 40.7287 90.4747C40.0354 91.8881 39.6887 93.4614 39.6887 95.1947C39.6887 96.9281 40.0354 98.4881 40.7287 99.8747C41.4221 101.261 42.4221 102.368 43.7287 103.195C45.0354 103.995 46.5821 104.395 48.3687 104.395ZM63.7681 104.355H66.8881L73.4881 94.8347L67.1281 85.8747H64.0481V83.8347H73.2881V85.8747H70.5681L75.4881 92.9947L80.3281 85.8747H77.5681V83.8347H86.3281V85.8747H83.2481L76.9281 94.7947L83.6881 104.355H86.8481V106.355H77.4081V104.355H80.2081L75.0081 96.6347L69.8481 104.355H72.6881V106.355H63.7681V104.355Z" fill="white"/>
</svg>
