<svg width="102" height="120" viewBox="0 0 102 120" fill="none" xmlns="http://www.w3.org/2000/svg">
<rect x="1" y="0.645218" width="101" height="74" rx="20" transform="rotate(0.40357 1 0.645218)" fill="#FF6431"/>
<path d="M38.872 46.456H42.616V24.52H38.872V21.976H61.96V30.184H58.936V24.52H46.552V33.592H54.712V30.664H56.728V39.448H54.712V36.328H46.552V46.456H50.296V49H38.872V46.456Z" fill="#F6F0C7"/>
<path d="M13.0444 104.88H16.1644V86.6H13.0444V84.48H24.2044C26.711 84.48 28.6177 84.96 29.9244 85.92C31.2577 86.8533 31.9244 88.24 31.9244 90.08C31.9244 91.3067 31.6177 92.3467 31.0044 93.2C30.391 94.0533 29.5644 94.6533 28.5244 95C30.0177 95.3733 31.151 96.0667 31.9244 97.08C32.7244 98.0667 33.1244 99.2533 33.1244 100.64C33.1244 102.453 32.471 103.973 31.1644 105.2C29.8577 106.4 27.8177 107 25.0444 107H13.0444V104.88ZM24.0044 94.08C27.1244 94.08 28.6844 92.7867 28.6844 90.2C28.6844 88.8933 28.2577 87.9733 27.4044 87.44C26.5777 86.88 25.2044 86.6 23.2844 86.6H19.4444V94.08H24.0044ZM24.4844 104.88C28.031 104.88 29.8044 103.427 29.8044 100.52C29.8044 99.2133 29.351 98.1867 28.4444 97.44C27.5377 96.6667 26.1777 96.28 24.3644 96.28H19.4444V104.88H24.4844ZM48.8475 107.44C46.4475 107.44 44.3142 106.92 42.4475 105.88C40.6075 104.813 39.1808 103.4 38.1675 101.64C37.1542 99.8533 36.6475 97.9067 36.6475 95.8C36.6475 93.6933 37.1542 91.7467 38.1675 89.96C39.1808 88.1467 40.6075 86.72 42.4475 85.68C44.3142 84.6133 46.4475 84.08 48.8475 84.08C51.2475 84.08 53.3675 84.6133 55.2075 85.68C57.0742 86.72 58.5142 88.1467 59.5275 89.96C60.5408 91.7467 61.0475 93.6933 61.0475 95.8C61.0475 97.9067 60.5408 99.8533 59.5275 101.64C58.5142 103.4 57.0742 104.813 55.2075 105.88C53.3675 106.92 51.2475 107.44 48.8475 107.44ZM48.8475 105.04C50.6342 105.04 52.1808 104.627 53.4875 103.8C54.7942 102.973 55.7942 101.867 56.4875 100.48C57.2075 99.0667 57.5675 97.5067 57.5675 95.8C57.5675 94.0667 57.2075 92.4933 56.4875 91.08C55.7942 89.6667 54.7942 88.5467 53.4875 87.72C52.1808 86.8667 50.6342 86.44 48.8475 86.44C47.0608 86.44 45.5142 86.8667 44.2075 87.72C42.9008 88.5467 41.9008 89.68 41.2075 91.12C40.5142 92.5333 40.1675 94.1067 40.1675 95.84C40.1675 97.5733 40.5142 99.1333 41.2075 100.52C41.9008 101.907 42.9008 103.013 44.2075 103.84C45.5142 104.64 47.0608 105.04 48.8475 105.04ZM64.2469 105H67.3669L73.9669 95.48L67.6069 86.52H64.5269V84.48H73.7669V86.52H71.0469L75.9669 93.64L80.8069 86.52H78.0469V84.48H86.8069V86.52H83.7269L77.4069 95.44L84.1669 105H87.3269V107H77.8869V105H80.6869L75.4869 97.28L70.3269 105H73.1669V107H64.2469V105Z" fill="black"/>
</svg>
